<svg xmlns="http://www.w3.org/2000/svg" width="256" height="256" viewBox="0 0 256 256" fill="none" role="img" aria-labelledby="title">
  <title id="title">Champion honor icon</title>
  <defs>
    <linearGradient id="champion-bg" x1="48" y1="28" x2="212" y2="232" gradientUnits="userSpaceOnUse">
      <stop stop-color="#F9FFF7"/>
      <stop offset="0.52" stop-color="#E9F7EC"/>
      <stop offset="1" stop-color="#F8E7B8"/>
    </linearGradient>
    <linearGradient id="champion-gold" x1="82" y1="58" x2="179" y2="198" gradientUnits="userSpaceOnUse">
      <stop stop-color="#FFE8A3"/>
      <stop offset="0.44" stop-color="#D9A33A"/>
      <stop offset="1" stop-color="#9C6A17"/>
    </linearGradient>
    <linearGradient id="champion-green" x1="78" y1="42" x2="180" y2="210" gradientUnits="userSpaceOnUse">
      <stop stop-color="#29A866"/>
      <stop offset="1" stop-color="#0F6F43"/>
    </linearGradient>
    <filter id="champion-shadow" x="22" y="20" width="212" height="220" filterUnits="userSpaceOnUse" color-interpolation-filters="sRGB">
      <feDropShadow dx="0" dy="14" stdDeviation="13" flood-color="#1B432D" flood-opacity="0.18"/>
    </filter>
  </defs>

  <circle cx="128" cy="128" r="108" fill="url(#champion-bg)"/>
  <path d="M48 148c34-19 126-19 160 0" stroke="#1F8B55" stroke-width="6" stroke-linecap="round" opacity="0.14"/>
  <path d="M58 171c29-14 111-14 140 0" stroke="#1F8B55" stroke-width="5" stroke-linecap="round" opacity="0.12"/>
  <path d="M128 32l8.3 16.8 18.5 2.7-13.4 13.1 3.2 18.4L128 74.3 111.4 83l3.2-18.4-13.4-13.1 18.5-2.7L128 32z" fill="#F4C64A"/>

  <g filter="url(#champion-shadow)">
    <path d="M128 210c-46-18-70-53-70-102V64h140v44c0 49-24 84-70 102z" fill="#FFFFFF"/>
    <path d="M128 198c-38-16-58-45-58-88V76h116v34c0 43-20 72-58 88z" fill="url(#champion-green)"/>
    <path d="M86 88h84v18c0 30-18 53-42 53s-42-23-42-53V88z" fill="url(#champion-gold)"/>
    <path d="M84 98H62c1 23 15 40 37 45" stroke="#D9A33A" stroke-width="12" stroke-linecap="round" stroke-linejoin="round"/>
    <path d="M172 98h22c-1 23-15 40-37 45" stroke="#D9A33A" stroke-width="12" stroke-linecap="round" stroke-linejoin="round"/>
    <path d="M113 162h30v22h-30z" fill="#C89436"/>
    <path d="M96 184h64l9 18H87l9-18z" fill="#F0C451"/>
    <path d="M104 202h48" stroke="#8D641C" stroke-width="6" stroke-linecap="round"/>

    <circle cx="128" cy="119" r="22" fill="#FAFFF9" stroke="#0F6F43" stroke-width="4"/>
    <path d="M128 103l10 7-4 12h-12l-4-12 10-7z" fill="#10251B"/>
    <path d="M118 110l-10 1M138 110l10 1M122 122l-8 10M134 122l8 10M128 103v-8" stroke="#10251B" stroke-width="3" stroke-linecap="round"/>
    <text x="128" y="184" text-anchor="middle" fill="#FFFFFF" font-family="Inter, Arial, sans-serif" font-size="42" font-weight="900">1</text>
  </g>
</svg>
