<svg xmlns="http://www.w3.org/2000/svg" width="256" height="256" viewBox="0 0 256 256" fill="none" role="img" aria-labelledby="title">
  <title id="title">Fourth place honor icon</title>
  <defs>
    <linearGradient id="fourth-bg" x1="42" y1="28" x2="218" y2="230" gradientUnits="userSpaceOnUse">
      <stop stop-color="#FFFFFF"/>
      <stop offset="0.52" stop-color="#F0F7F2"/>
      <stop offset="1" stop-color="#EDF2F7"/>
    </linearGradient>
    <linearGradient id="fourth-plate" x1="70" y1="48" x2="184" y2="214" gradientUnits="userSpaceOnUse">
      <stop stop-color="#2BAF6A"/>
      <stop offset="0.52" stop-color="#167E4D"/>
      <stop offset="1" stop-color="#0F5134"/>
    </linearGradient>
    <linearGradient id="fourth-ribbon" x1="88" y1="92" x2="170" y2="184" gradientUnits="userSpaceOnUse">
      <stop stop-color="#F4C64A"/>
      <stop offset="1" stop-color="#B17923"/>
    </linearGradient>
    <filter id="fourth-shadow" x="24" y="24" width="208" height="212" filterUnits="userSpaceOnUse" color-interpolation-filters="sRGB">
      <feDropShadow dx="0" dy="14" stdDeviation="13" flood-color="#1B432D" flood-opacity="0.16"/>
    </filter>
  </defs>

  <circle cx="128" cy="128" r="108" fill="url(#fourth-bg)"/>
  <path d="M51 148c34-16 120-16 154 0" stroke="#1F8B55" stroke-width="6" stroke-linecap="round" opacity="0.12"/>
  <path d="M67 174c26-11 96-11 122 0" stroke="#6D7D72" stroke-width="5" stroke-linecap="round" opacity="0.14"/>

  <g filter="url(#fourth-shadow)">
    <path d="M128 211c-45-17-70-51-70-99V66l70-28 70 28v46c0 48-25 82-70 99z" fill="#FFFFFF"/>
    <path d="M128 198c-37-15-58-43-58-84V76l58-23 58 23v38c0 41-21 69-58 84z" fill="url(#fourth-plate)"/>
    <path d="M84 96h88l-12 72H96L84 96z" fill="#FAFFF9" opacity="0.95"/>
    <path d="M96 105h64l-7 42h-50l-7-42z" fill="#EAF7EF"/>
    <path d="M103 147h50l9 21H94l9-21z" fill="url(#fourth-ribbon)"/>
    <circle cx="128" cy="120" r="23" fill="#FFFFFF" stroke="#14683F" stroke-width="4"/>
    <path d="M128 103l10 7-4 12h-12l-4-12 10-7z" fill="#10251B"/>
    <path d="M118 110l-10 1M138 110l10 1M122 122l-8 10M134 122l8 10" stroke="#10251B" stroke-width="3" stroke-linecap="round"/>
    <text x="128" y="184" text-anchor="middle" fill="#FFFFFF" font-family="Inter, Arial, sans-serif" font-size="38" font-weight="900">4</text>
  </g>
</svg>
