<svg xmlns="http://www.w3.org/2000/svg" width="256" height="256" viewBox="0 0 256 256" fill="none" role="img" aria-labelledby="title">
  <title id="title">Runner-up honor icon</title>
  <defs>
    <linearGradient id="runner-bg" x1="42" y1="28" x2="220" y2="228" gradientUnits="userSpaceOnUse">
      <stop stop-color="#FFFFFF"/>
      <stop offset="0.54" stop-color="#EEF4FF"/>
      <stop offset="1" stop-color="#EAF7EF"/>
    </linearGradient>
    <linearGradient id="runner-silver" x1="74" y1="60" x2="174" y2="204" gradientUnits="userSpaceOnUse">
      <stop stop-color="#FFFFFF"/>
      <stop offset="0.42" stop-color="#C7D0D9"/>
      <stop offset="1" stop-color="#7F8A96"/>
    </linearGradient>
    <linearGradient id="runner-green" x1="70" y1="44" x2="182" y2="212" gradientUnits="userSpaceOnUse">
      <stop stop-color="#28A665"/>
      <stop offset="1" stop-color="#0F6F43"/>
    </linearGradient>
    <filter id="runner-shadow" x="24" y="24" width="208" height="212" filterUnits="userSpaceOnUse" color-interpolation-filters="sRGB">
      <feDropShadow dx="0" dy="14" stdDeviation="13" flood-color="#1B432D" flood-opacity="0.16"/>
    </filter>
  </defs>

  <circle cx="128" cy="128" r="108" fill="url(#runner-bg)"/>
  <path d="M52 151c33-16 119-16 152 0" stroke="#2563EB" stroke-width="6" stroke-linecap="round" opacity="0.12"/>
  <path d="M64 176c27-12 101-12 128 0" stroke="#1F8B55" stroke-width="5" stroke-linecap="round" opacity="0.12"/>

  <g filter="url(#runner-shadow)">
    <path d="M128 210c-43-16-68-49-68-96V68l68-26 68 26v46c0 47-25 80-68 96z" fill="#FFFFFF"/>
    <path d="M128 197c-35-14-56-42-56-81V78l56-21 56 21v38c0 39-21 67-56 81z" fill="url(#runner-green)"/>
    <path d="M100 82h56l13 28-41 54-41-54 13-28z" fill="url(#runner-silver)"/>
    <path d="M99 83l29 81 29-81" stroke="#FFFFFF" stroke-width="5" stroke-linecap="round" opacity="0.56"/>
    <path d="M87 110h82" stroke="#8E99A5" stroke-width="6" stroke-linecap="round" opacity="0.42"/>
    <circle cx="128" cy="126" r="24" fill="#FAFFF9" stroke="#14683F" stroke-width="4"/>
    <path d="M128 109l10 8-4 12h-12l-4-12 10-8z" fill="#10251B"/>
    <path d="M118 117l-10 1M138 117l10 1M122 129l-8 10M134 129l8 10" stroke="#10251B" stroke-width="3" stroke-linecap="round"/>
    <path d="M94 182h68l8 20H86l8-20z" fill="#AEB8C2"/>
    <path d="M104 172h48v14h-48z" fill="#D5DCE3"/>
    <text x="128" y="184" text-anchor="middle" fill="#FFFFFF" font-family="Inter, Arial, sans-serif" font-size="38" font-weight="900">2</text>
  </g>
</svg>
